<svg xmlns="http://www.w3.org/2000/svg" width="23.446" height="13.674" viewBox="0 0 23.446 13.674">
  <g id="Group_131" data-name="Group 131" transform="translate(-37.056 -561)">
    <g id="Group_130" data-name="Group 130" transform="translate(37.056 561)">
      <path id="truck" d="M21.948,102.765c-.074-.015-.143-.03-.2-.046-.7-.182-1.02-.282-1.257-.739l-.9-1.813a2.049,2.049,0,0,0-1.657-1.008H16.339V97.066a.683.683,0,0,0-.682-.682L4.552,96.4a.645.645,0,0,0-.642.676v.619H1.065a1.065,1.065,0,0,0,0,2.131H3.91v1.021H2.048a1.065,1.065,0,0,0,0,2.131H3.91v1.021H3.03a1.065,1.065,0,0,0,0,2.131h.88v1.068a.683.683,0,0,0,.682.682H5.747a2.553,2.553,0,0,0,5.053,0h4.675c.024,0,.049,0,.074,0a2.553,2.553,0,0,0,5.053,0h1.659a1.186,1.186,0,0,0,1.185-1.184v-2.01C23.446,103.079,22.544,102.89,21.948,102.765Zm-3.872,3.812a.928.928,0,1,1-.928.928A.929.929,0,0,1,18.076,106.577Zm-1.737-3.956v-2.472h1.218a1.584,1.584,0,0,1,1.26.765l.8,1.613q.025.049.053.094H16.339ZM9.2,107.505a.928.928,0,1,1-.929-.928A.929.929,0,0,1,9.2,107.505Z" transform="translate(0 -96.384)" fill="#fff"/>
      <g id="dollar-symbol" transform="translate(7.524 0.665)">
        <path id="Path_214" data-name="Path 214" d="M4.023,0A4.023,4.023,0,1,0,8.046,4.023,4.023,4.023,0,0,0,4.023,0Zm.244,5.815V6.28a.125.125,0,0,1-.129.126h-.31A.126.126,0,0,1,3.7,6.28V5.856A2.665,2.665,0,0,1,2.9,5.7.249.249,0,0,1,2.75,5.4l.051-.2a.249.249,0,0,1,.331-.17,2,2,0,0,0,.715.139c.334,0,.562-.129.562-.363s-.187-.363-.621-.51c-.627-.211-1.056-.5-1.056-1.072A1.083,1.083,0,0,1,3.721,2.19V1.765a.14.14,0,0,1,.135-.138h.31a.132.132,0,0,1,.126.138v.384a2.312,2.312,0,0,1,.634.106.25.25,0,0,1,.165.3l-.044.176a.248.248,0,0,1-.321.173,1.793,1.793,0,0,0-.592-.1c-.381,0-.5.164-.5.328,0,.193.205.316.7.5.7.246.977.568.977,1.095A1.122,1.122,0,0,1,4.266,5.815Z" fill="#3a3f50"/>
      </g>
    </g>
  </g>
</svg>
