<svg xmlns="http://www.w3.org/2000/svg" width="27.812" height="16.22" viewBox="0 0 27.812 16.22">
  <g id="Group_132" data-name="Group 132" transform="translate(-37.056 -561)">
    <g id="Group_130" data-name="Group 130" transform="translate(37.056 561)">
      <path id="truck" d="M26.034,103.953c-.087-.018-.17-.036-.243-.055-.831-.216-1.21-.335-1.491-.876l-1.062-2.151a2.431,2.431,0,0,0-1.965-1.2H19.381V97.193a.81.81,0,0,0-.809-.809L5.4,96.4a.765.765,0,0,0-.761.8v.734H1.264a1.264,1.264,0,0,0,0,2.528H4.638v1.211H2.429a1.264,1.264,0,1,0,0,2.528H4.638v1.211H3.594a1.264,1.264,0,0,0,0,2.528H4.638v1.267a.81.81,0,0,0,.809.809h1.37a3.029,3.029,0,0,0,5.994,0h5.545c.029,0,.058,0,.088,0a3.029,3.029,0,0,0,5.994,0h1.968a1.407,1.407,0,0,0,1.405-1.4v-2.384C27.812,104.326,26.742,104.1,26.034,103.953Zm-4.593,4.522a1.1,1.1,0,1,1-1.1,1.1A1.1,1.1,0,0,1,21.441,108.475Zm-2.06-4.693v-2.933h1.445a1.879,1.879,0,0,1,1.5.908l.945,1.914q.03.058.062.111H19.381Zm-8.466,5.794a1.1,1.1,0,1,1-1.1-1.1A1.1,1.1,0,0,1,10.915,109.576Z" transform="translate(0 -96.384)" fill="#ff8400"/>
      <g id="dollar-symbol" transform="translate(8.925 0.789)">
        <path id="Path_214" data-name="Path 214" d="M4.772,0A4.772,4.772,0,1,0,9.544,4.772,4.772,4.772,0,0,0,4.772,0Zm.289,6.9V7.45a.148.148,0,0,1-.153.149H4.539a.15.15,0,0,1-.156-.149v-.5a3.161,3.161,0,0,1-.939-.186.3.3,0,0,1-.181-.349l.06-.234a.3.3,0,0,1,.392-.2,2.369,2.369,0,0,0,.848.165c.4,0,.667-.153.667-.431s-.222-.431-.736-.6c-.743-.25-1.252-.6-1.252-1.271A1.285,1.285,0,0,1,4.414,2.6v-.5a.166.166,0,0,1,.16-.163h.368a.157.157,0,0,1,.15.163v.455a2.742,2.742,0,0,1,.752.125.3.3,0,0,1,.2.354l-.053.209a.295.295,0,0,1-.381.206,2.127,2.127,0,0,0-.7-.116c-.451,0-.6.195-.6.389,0,.229.243.375.834.6.826.292,1.159.674,1.159,1.3A1.331,1.331,0,0,1,5.061,6.9Z" fill="#3a3f50"/>
      </g>
    </g>
  </g>
</svg>
