<svg xmlns="http://www.w3.org/2000/svg" width="17" height="17.174" viewBox="0 0 17 17.174">
  <g id="ecommerce" transform="translate(-2.594)">
    <path id="Path_214" data-name="Path 214" d="M210.732,0h-3.019V3.086h-1.006V0h-3.019V5.1h7.044Z" transform="translate(-194.349)" fill="#ff8400"/>
    <path id="Path_215" data-name="Path 215" d="M15.877,132.063H8.833a.5.5,0,0,1,0-1.006h8.413l2.348-7.044H6.917L6.163,122H2.594v1.006H5.465l2.7,7.2a1.509,1.509,0,0,0,.271,2.809,1.509,1.509,0,1,0,2.826.053h3.192a1.509,1.509,0,1,0,1.423-1.006Zm-1.1-4.025H13.361v-1.006h1.586Zm1.188-1.006h1.559l-.335,1.006H15.8Zm-2.606,2.013h1.251l-.168,1.006H13.361Zm-1.006,1.006H11.272l-.168-1.006h1.251Zm1.006-4.025v-1.006h1.922l-.168,1.006Zm-1.006,0H10.6l-.168-1.006h1.922Zm0,1.006v1.006H10.936l-.168-1.006Zm-2.439,1.006H8.427l-.377-1.006h1.7Zm.168,1.006.168,1.006H9.182L8.8,129.044Zm5.381,1.006.168-1.006h1.224l-.335,1.006Zm2.4-4.025H16.135l.168-1.006H18.2Zm-8.449-1.006.168,1.006H7.672l-.377-1.006Z" transform="translate(0 -117.908)" fill="#ff8400"/>
  </g>
</svg>
