<svg xmlns="http://www.w3.org/2000/svg" width="15" height="15.941" viewBox="0 0 15 15.941">
  <g id="ecommerce" transform="translate(-2.594)">
    <path id="Path_214" data-name="Path 214" d="M210.226,0h-2.8V2.864h-.934V0h-2.8V4.732h6.538Z" transform="translate(-195.361)" fill="#fff"/>
    <path id="Path_215" data-name="Path 215" d="M14.314,131.34H8.1a.468.468,0,0,1,0-.934h7.423l2.072-6.538H6.409L5.743,122H2.594v.934H5.128l2.382,6.683a1.411,1.411,0,0,0-.743,1.256,1.394,1.394,0,0,0,.982,1.352,1.456,1.456,0,0,0-.094.516,1.334,1.334,0,1,0,2.664,0,1.46,1.46,0,0,0-.076-.467h2.816a1.46,1.46,0,0,0-.076.467,1.334,1.334,0,1,0,1.332-1.4Zm-.968-3.736H12.095v-.934h1.4Zm1.048-.934H15.77l-.3.934H14.246Zm-2.3,1.868h1.1l-.148.934h-.956Zm-.888.934h-.956l-.148-.934h1.1Zm.888-3.736V124.8h1.7l-.148.934Zm-.888,0H9.659l-.148-.934h1.7Zm0,.934v.934H9.955l-.148-.934Zm-2.152.934H7.741l-.333-.934h1.5Zm.148.934.148.934H8.407l-.333-.934Zm4.748.934.148-.934h1.08l-.3.934Zm2.116-3.736H14.542l.148-.934h1.672ZM8.611,124.8l.148.934H7.075l-.333-.934Z" transform="translate(0 -118.202)" fill="#fff"/>
  </g>
</svg>
